<mxfile host="app.diagrams.net" agent="Mozilla/5.0 (Windows NT 10.0; Win64; x64) AppleWebKit/537.36 (KHTML, like Gecko) Chrome/138.0.0.0 Safari/537.36" version="28.0.9">
  <diagram name="Page-1" id="nQlA_B8gSPWcOCpcZbjN">
    <mxGraphModel dx="1042" dy="658" grid="1" gridSize="10" guides="1" tooltips="1" connect="1" arrows="1" fold="1" page="1" pageScale="1" pageWidth="850" pageHeight="1100" math="0" shadow="0">
      <root>
        <mxCell id="0" />
        <mxCell id="1" parent="0" />
        <mxCell id="sDvgx3UKLES51KZf_snh-1" value="Page Load" style="rounded=1;whiteSpace=wrap;html=1;fillColor=#dae8fc;strokeColor=#6c8ebf;" vertex="1" parent="1">
          <mxGeometry x="270" y="40" width="350" height="60" as="geometry" />
        </mxCell>
        <mxCell id="sDvgx3UKLES51KZf_snh-3" value="Parse HTML + CSS&lt;div&gt;&amp;nbsp;â†’ render UI&lt;/div&gt;" style="rounded=1;whiteSpace=wrap;html=1;fillColor=#d5e8d4;strokeColor=#82b366;" vertex="1" parent="1">
          <mxGeometry x="355" y="160" width="180" height="50" as="geometry" />
        </mxCell>
        <mxCell id="sDvgx3UKLES51KZf_snh-4" value="Run&lt;div&gt;Bottom of the Body&lt;/div&gt;" style="rounded=1;whiteSpace=wrap;html=1;fillColor=#ffe6cc;strokeColor=#d79b00;" vertex="1" parent="1">
          <mxGeometry x="377.5" y="270" width="125" height="100" as="geometry" />
        </mxCell>
        <mxCell id="sDvgx3UKLES51KZf_snh-7" value="Create Quotes" style="rounded=1;whiteSpace=wrap;html=1;fillColor=#fff2cc;strokeColor=#d6b656;" vertex="1" parent="1">
          <mxGeometry x="325" y="440" width="225" height="80" as="geometry" />
        </mxCell>
        <mxCell id="sDvgx3UKLES51KZf_snh-11" value="Define Function&lt;div&gt;Generate Card&lt;/div&gt;" style="rounded=1;whiteSpace=wrap;html=1;fillColor=#f8cecc;strokeColor=#b85450;" vertex="1" parent="1">
          <mxGeometry x="335" y="570" width="210" height="60" as="geometry" />
        </mxCell>
        <mxCell id="sDvgx3UKLES51KZf_snh-12" value="Add Event Listeners" style="rounded=1;whiteSpace=wrap;html=1;fillColor=#e1d5e7;strokeColor=#9673a6;" vertex="1" parent="1">
          <mxGeometry x="340" y="690" width="200" height="80" as="geometry" />
        </mxCell>
        <mxCell id="sDvgx3UKLES51KZf_snh-15" value="&lt;font style=&quot;color: light-dark(rgb(20, 20, 20), rgb(237, 237, 237));&quot;&gt;Ready&lt;/font&gt;&amp;nbsp;&lt;span style=&quot;background-color: transparent; color: light-dark(rgb(0, 0, 0), rgb(255, 255, 255));&quot;&gt;/ WAIT&lt;/span&gt;&lt;div&gt;&lt;span style=&quot;background-color: transparent; color: light-dark(rgb(0, 0, 0), rgb(255, 255, 255));&quot;&gt;&amp;nbsp;for User Action&lt;/span&gt;&lt;/div&gt;" style="rhombus;whiteSpace=wrap;html=1;fillColor=#6d8764;fontColor=#ffffff;strokeColor=#3A5431;" vertex="1" parent="1">
          <mxGeometry x="360" y="840" width="160" height="80" as="geometry" />
        </mxCell>
        <mxCell id="sDvgx3UKLES51KZf_snh-16" value="User clicks&amp;nbsp;&lt;div&gt;&quot;New Card&quot;&lt;/div&gt;&lt;div&gt;&amp;nbsp;button&lt;/div&gt;" style="rounded=1;whiteSpace=wrap;html=1;fillColor=#647687;fontColor=#ffffff;strokeColor=#314354;" vertex="1" parent="1">
          <mxGeometry x="170" y="1020" width="170" height="130" as="geometry" />
        </mxCell>
        <mxCell id="sDvgx3UKLES51KZf_snh-17" value="User clicks&lt;div&gt;&amp;nbsp;the card itself&lt;/div&gt;" style="rounded=1;whiteSpace=wrap;html=1;fillColor=#76608a;fontColor=#ffffff;strokeColor=#432D57;" vertex="1" parent="1">
          <mxGeometry x="590" y="1020" width="170" height="130" as="geometry" />
        </mxCell>
        <mxCell id="sDvgx3UKLES51KZf_snh-18" value="" style="endArrow=classic;html=1;rounded=0;exitX=0.5;exitY=1;exitDx=0;exitDy=0;" edge="1" parent="1" source="sDvgx3UKLES51KZf_snh-1" target="sDvgx3UKLES51KZf_snh-3">
          <mxGeometry width="50" height="50" relative="1" as="geometry">
            <mxPoint x="450" y="110" as="sourcePoint" />
            <mxPoint x="500" y="60" as="targetPoint" />
          </mxGeometry>
        </mxCell>
        <mxCell id="sDvgx3UKLES51KZf_snh-20" value="" style="endArrow=classic;html=1;rounded=0;exitX=0.5;exitY=1;exitDx=0;exitDy=0;" edge="1" parent="1">
          <mxGeometry width="50" height="50" relative="1" as="geometry">
            <mxPoint x="440" y="210" as="sourcePoint" />
            <mxPoint x="440" y="270" as="targetPoint" />
          </mxGeometry>
        </mxCell>
        <mxCell id="sDvgx3UKLES51KZf_snh-21" value="" style="endArrow=classic;html=1;rounded=0;exitX=0.5;exitY=1;exitDx=0;exitDy=0;" edge="1" parent="1">
          <mxGeometry width="50" height="50" relative="1" as="geometry">
            <mxPoint x="440" y="420" as="sourcePoint" />
            <mxPoint x="440" y="440" as="targetPoint" />
            <Array as="points">
              <mxPoint x="440" y="370" />
            </Array>
          </mxGeometry>
        </mxCell>
        <mxCell id="sDvgx3UKLES51KZf_snh-23" value="" style="endArrow=classic;html=1;rounded=0;exitX=0.5;exitY=1;exitDx=0;exitDy=0;" edge="1" parent="1">
          <mxGeometry width="50" height="50" relative="1" as="geometry">
            <mxPoint x="444.5" y="570" as="sourcePoint" />
            <mxPoint x="445" y="570" as="targetPoint" />
            <Array as="points">
              <mxPoint x="444.5" y="520" />
            </Array>
          </mxGeometry>
        </mxCell>
        <mxCell id="sDvgx3UKLES51KZf_snh-26" value="" style="endArrow=classic;html=1;rounded=0;entryX=0.5;entryY=0;entryDx=0;entryDy=0;" edge="1" parent="1" target="sDvgx3UKLES51KZf_snh-12">
          <mxGeometry width="50" height="50" relative="1" as="geometry">
            <mxPoint x="440" y="630" as="sourcePoint" />
            <mxPoint x="490" y="580" as="targetPoint" />
          </mxGeometry>
        </mxCell>
        <mxCell id="sDvgx3UKLES51KZf_snh-27" value="" style="endArrow=classic;html=1;rounded=0;exitX=0.5;exitY=1;exitDx=0;exitDy=0;" edge="1" parent="1" source="sDvgx3UKLES51KZf_snh-12">
          <mxGeometry width="50" height="50" relative="1" as="geometry">
            <mxPoint x="450" y="780" as="sourcePoint" />
            <mxPoint x="440" y="840" as="targetPoint" />
          </mxGeometry>
        </mxCell>
        <mxCell id="sDvgx3UKLES51KZf_snh-29" value="" style="endArrow=none;html=1;rounded=0;entryX=0;entryY=0.5;entryDx=0;entryDy=0;" edge="1" parent="1" target="sDvgx3UKLES51KZf_snh-15">
          <mxGeometry width="50" height="50" relative="1" as="geometry">
            <mxPoint x="240" y="880" as="sourcePoint" />
            <mxPoint x="330" y="870" as="targetPoint" />
          </mxGeometry>
        </mxCell>
        <mxCell id="sDvgx3UKLES51KZf_snh-30" value="" style="endArrow=none;html=1;rounded=0;entryX=0;entryY=0.5;entryDx=0;entryDy=0;" edge="1" parent="1">
          <mxGeometry width="50" height="50" relative="1" as="geometry">
            <mxPoint x="520" y="879.5" as="sourcePoint" />
            <mxPoint x="640" y="879.5" as="targetPoint" />
          </mxGeometry>
        </mxCell>
        <mxCell id="sDvgx3UKLES51KZf_snh-31" value="" style="endArrow=classic;html=1;rounded=0;entryX=0.405;entryY=0.011;entryDx=0;entryDy=0;entryPerimeter=0;" edge="1" parent="1" target="sDvgx3UKLES51KZf_snh-16">
          <mxGeometry width="50" height="50" relative="1" as="geometry">
            <mxPoint x="240" y="880" as="sourcePoint" />
            <mxPoint x="290" y="830" as="targetPoint" />
          </mxGeometry>
        </mxCell>
        <mxCell id="sDvgx3UKLES51KZf_snh-34" value="" style="endArrow=classic;html=1;rounded=0;entryX=0.405;entryY=0.011;entryDx=0;entryDy=0;entryPerimeter=0;" edge="1" parent="1">
          <mxGeometry width="50" height="50" relative="1" as="geometry">
            <mxPoint x="641" y="879" as="sourcePoint" />
            <mxPoint x="640" y="1020" as="targetPoint" />
          </mxGeometry>
        </mxCell>
      </root>
    </mxGraphModel>
  </diagram>
</mxfile>
